<mxfile host="app.diagrams.net" modified="2023-10-02T12:02:21.476Z" agent="Mozilla/5.0 (Windows NT 10.0; Win64; x64) AppleWebKit/537.36 (KHTML, like Gecko) Chrome/117.0.0.0 Safari/537.36" etag="OZY0-8ZEjlYv_RF1jXxq" version="21.8.2" type="github">
  <diagram name="Страница — 1" id="lH_QqwzPcAFevmK61wTD">
    <mxGraphModel dx="2062" dy="666" grid="1" gridSize="10" guides="1" tooltips="1" connect="1" arrows="1" fold="1" page="1" pageScale="1" pageWidth="827" pageHeight="1169" math="0" shadow="0">
      <root>
        <mxCell id="0" />
        <mxCell id="1" parent="0" />
        <mxCell id="y5Bnewn31eUm3wbabq6c-1" value="Лаборатория" style="rounded=0;whiteSpace=wrap;html=1;" vertex="1" parent="1">
          <mxGeometry x="80" y="160" width="80" height="40" as="geometry" />
        </mxCell>
        <mxCell id="y5Bnewn31eUm3wbabq6c-2" value="В лаборатории" style="rhombus;whiteSpace=wrap;html=1;" vertex="1" parent="1">
          <mxGeometry x="240" y="155" width="110" height="50" as="geometry" />
        </mxCell>
        <mxCell id="y5Bnewn31eUm3wbabq6c-3" value="" style="endArrow=none;html=1;rounded=0;exitX=1;exitY=0.5;exitDx=0;exitDy=0;entryX=0;entryY=0.5;entryDx=0;entryDy=0;" edge="1" parent="1" source="y5Bnewn31eUm3wbabq6c-1" target="y5Bnewn31eUm3wbabq6c-2">
          <mxGeometry width="50" height="50" relative="1" as="geometry">
            <mxPoint x="290" y="310" as="sourcePoint" />
            <mxPoint x="340" y="260" as="targetPoint" />
          </mxGeometry>
        </mxCell>
        <mxCell id="y5Bnewn31eUm3wbabq6c-4" value="План" style="rounded=0;whiteSpace=wrap;html=1;" vertex="1" parent="1">
          <mxGeometry x="440" y="160" width="80" height="40" as="geometry" />
        </mxCell>
        <mxCell id="y5Bnewn31eUm3wbabq6c-5" value="" style="endArrow=none;html=1;rounded=0;entryX=0;entryY=0.5;entryDx=0;entryDy=0;exitX=1;exitY=0.5;exitDx=0;exitDy=0;" edge="1" parent="1" source="y5Bnewn31eUm3wbabq6c-2" target="y5Bnewn31eUm3wbabq6c-4">
          <mxGeometry width="50" height="50" relative="1" as="geometry">
            <mxPoint x="290" y="310" as="sourcePoint" />
            <mxPoint x="340" y="260" as="targetPoint" />
          </mxGeometry>
        </mxCell>
        <mxCell id="y5Bnewn31eUm3wbabq6c-6" value="Запланировано&lt;br&gt;для студента" style="rhombus;whiteSpace=wrap;html=1;" vertex="1" parent="1">
          <mxGeometry x="610" y="147.5" width="130" height="65" as="geometry" />
        </mxCell>
        <mxCell id="y5Bnewn31eUm3wbabq6c-7" value="" style="endArrow=none;html=1;rounded=0;entryX=0;entryY=0.5;entryDx=0;entryDy=0;exitX=1;exitY=0.5;exitDx=0;exitDy=0;" edge="1" parent="1" source="y5Bnewn31eUm3wbabq6c-4" target="y5Bnewn31eUm3wbabq6c-6">
          <mxGeometry width="50" height="50" relative="1" as="geometry">
            <mxPoint x="400" y="310" as="sourcePoint" />
            <mxPoint x="450" y="260" as="targetPoint" />
          </mxGeometry>
        </mxCell>
        <mxCell id="y5Bnewn31eUm3wbabq6c-8" value="Студент" style="rounded=0;whiteSpace=wrap;html=1;" vertex="1" parent="1">
          <mxGeometry x="635" y="280" width="80" height="40" as="geometry" />
        </mxCell>
        <mxCell id="y5Bnewn31eUm3wbabq6c-9" value="" style="endArrow=none;html=1;rounded=0;entryX=0.5;entryY=1;entryDx=0;entryDy=0;exitX=0.5;exitY=0;exitDx=0;exitDy=0;" edge="1" parent="1" source="y5Bnewn31eUm3wbabq6c-8" target="y5Bnewn31eUm3wbabq6c-6">
          <mxGeometry width="50" height="50" relative="1" as="geometry">
            <mxPoint x="500" y="310" as="sourcePoint" />
            <mxPoint x="550" y="260" as="targetPoint" />
          </mxGeometry>
        </mxCell>
        <mxCell id="y5Bnewn31eUm3wbabq6c-10" value="Отчет" style="rhombus;whiteSpace=wrap;html=1;" vertex="1" parent="1">
          <mxGeometry x="620" y="380" width="110" height="50" as="geometry" />
        </mxCell>
        <mxCell id="y5Bnewn31eUm3wbabq6c-13" value="Работа" style="rounded=0;whiteSpace=wrap;html=1;" vertex="1" parent="1">
          <mxGeometry x="440" y="384" width="80" height="40" as="geometry" />
        </mxCell>
        <mxCell id="y5Bnewn31eUm3wbabq6c-14" value="Запланированная&lt;br&gt;раюота" style="rhombus;whiteSpace=wrap;html=1;" vertex="1" parent="1">
          <mxGeometry x="402.5" y="270" width="155" height="60" as="geometry" />
        </mxCell>
        <mxCell id="y5Bnewn31eUm3wbabq6c-15" value="" style="endArrow=none;html=1;rounded=0;entryX=0.5;entryY=1;entryDx=0;entryDy=0;exitX=0.5;exitY=0;exitDx=0;exitDy=0;" edge="1" parent="1" source="y5Bnewn31eUm3wbabq6c-10" target="y5Bnewn31eUm3wbabq6c-8">
          <mxGeometry width="50" height="50" relative="1" as="geometry">
            <mxPoint x="450" y="430" as="sourcePoint" />
            <mxPoint x="500" y="380" as="targetPoint" />
          </mxGeometry>
        </mxCell>
        <mxCell id="y5Bnewn31eUm3wbabq6c-16" value="" style="endArrow=none;html=1;rounded=0;entryX=0.5;entryY=1;entryDx=0;entryDy=0;exitX=0.5;exitY=0;exitDx=0;exitDy=0;" edge="1" parent="1" source="y5Bnewn31eUm3wbabq6c-14" target="y5Bnewn31eUm3wbabq6c-4">
          <mxGeometry width="50" height="50" relative="1" as="geometry">
            <mxPoint x="450" y="430" as="sourcePoint" />
            <mxPoint x="500" y="380" as="targetPoint" />
          </mxGeometry>
        </mxCell>
        <mxCell id="y5Bnewn31eUm3wbabq6c-17" value="" style="endArrow=none;html=1;rounded=0;entryX=0.5;entryY=1;entryDx=0;entryDy=0;exitX=0.5;exitY=0;exitDx=0;exitDy=0;" edge="1" parent="1" source="y5Bnewn31eUm3wbabq6c-13" target="y5Bnewn31eUm3wbabq6c-14">
          <mxGeometry width="50" height="50" relative="1" as="geometry">
            <mxPoint x="450" y="430" as="sourcePoint" />
            <mxPoint x="500" y="380" as="targetPoint" />
          </mxGeometry>
        </mxCell>
        <mxCell id="y5Bnewn31eUm3wbabq6c-18" value="" style="endArrow=none;html=1;rounded=0;entryX=0;entryY=0.5;entryDx=0;entryDy=0;exitX=1;exitY=0.5;exitDx=0;exitDy=0;" edge="1" parent="1" source="y5Bnewn31eUm3wbabq6c-13" target="y5Bnewn31eUm3wbabq6c-10">
          <mxGeometry width="50" height="50" relative="1" as="geometry">
            <mxPoint x="450" y="430" as="sourcePoint" />
            <mxPoint x="500" y="380" as="targetPoint" />
          </mxGeometry>
        </mxCell>
        <mxCell id="y5Bnewn31eUm3wbabq6c-19" value="0, N" style="text;strokeColor=none;fillColor=none;align=left;verticalAlign=middle;spacingLeft=4;spacingRight=4;overflow=hidden;points=[[0,0.5],[1,0.5]];portConstraint=eastwest;rotatable=0;whiteSpace=wrap;html=1;" vertex="1" parent="1">
          <mxGeometry x="180" y="155" width="80" height="30" as="geometry" />
        </mxCell>
        <mxCell id="y5Bnewn31eUm3wbabq6c-20" value="1, 1" style="text;strokeColor=none;fillColor=none;align=left;verticalAlign=middle;spacingLeft=4;spacingRight=4;overflow=hidden;points=[[0,0.5],[1,0.5]];portConstraint=eastwest;rotatable=0;whiteSpace=wrap;html=1;" vertex="1" parent="1">
          <mxGeometry x="374" y="155" width="80" height="30" as="geometry" />
        </mxCell>
        <mxCell id="y5Bnewn31eUm3wbabq6c-21" value="1, 1" style="text;strokeColor=none;fillColor=none;align=left;verticalAlign=middle;spacingLeft=4;spacingRight=4;overflow=hidden;points=[[0,0.5],[1,0.5]];portConstraint=eastwest;rotatable=0;whiteSpace=wrap;html=1;" vertex="1" parent="1">
          <mxGeometry x="540" y="155" width="80" height="30" as="geometry" />
        </mxCell>
        <mxCell id="y5Bnewn31eUm3wbabq6c-22" value="1, 1" style="text;strokeColor=none;fillColor=none;align=left;verticalAlign=middle;spacingLeft=4;spacingRight=4;overflow=hidden;points=[[0,0.5],[1,0.5]];portConstraint=eastwest;rotatable=0;whiteSpace=wrap;html=1;" vertex="1" parent="1">
          <mxGeometry x="452" y="212.5" width="80" height="30" as="geometry" />
        </mxCell>
        <mxCell id="y5Bnewn31eUm3wbabq6c-23" value="0, N" style="text;strokeColor=none;fillColor=none;align=left;verticalAlign=middle;spacingLeft=4;spacingRight=4;overflow=hidden;points=[[0,0.5],[1,0.5]];portConstraint=eastwest;rotatable=0;whiteSpace=wrap;html=1;" vertex="1" parent="1">
          <mxGeometry x="450" y="340" width="80" height="30" as="geometry" />
        </mxCell>
        <mxCell id="y5Bnewn31eUm3wbabq6c-24" value="0, N" style="text;strokeColor=none;fillColor=none;align=left;verticalAlign=middle;spacingLeft=4;spacingRight=4;overflow=hidden;points=[[0,0.5],[1,0.5]];portConstraint=eastwest;rotatable=0;whiteSpace=wrap;html=1;" vertex="1" parent="1">
          <mxGeometry x="570" y="380" width="80" height="30" as="geometry" />
        </mxCell>
        <mxCell id="y5Bnewn31eUm3wbabq6c-25" value="0, N" style="text;strokeColor=none;fillColor=none;align=left;verticalAlign=middle;spacingLeft=4;spacingRight=4;overflow=hidden;points=[[0,0.5],[1,0.5]];portConstraint=eastwest;rotatable=0;whiteSpace=wrap;html=1;" vertex="1" parent="1">
          <mxGeometry x="680" y="340" width="80" height="30" as="geometry" />
        </mxCell>
        <mxCell id="y5Bnewn31eUm3wbabq6c-26" value="0, N" style="text;strokeColor=none;fillColor=none;align=left;verticalAlign=middle;spacingLeft=4;spacingRight=4;overflow=hidden;points=[[0,0.5],[1,0.5]];portConstraint=eastwest;rotatable=0;whiteSpace=wrap;html=1;" vertex="1" parent="1">
          <mxGeometry x="672" y="220" width="80" height="30" as="geometry" />
        </mxCell>
        <mxCell id="y5Bnewn31eUm3wbabq6c-27" value="Номер" style="ellipse;whiteSpace=wrap;html=1;" vertex="1" parent="1">
          <mxGeometry x="-40" y="100" width="80" height="40" as="geometry" />
        </mxCell>
        <mxCell id="y5Bnewn31eUm3wbabq6c-28" value="Имя" style="ellipse;whiteSpace=wrap;html=1;" vertex="1" parent="1">
          <mxGeometry x="-39" y="160" width="80" height="40" as="geometry" />
        </mxCell>
        <mxCell id="y5Bnewn31eUm3wbabq6c-29" value="Вместительность" style="ellipse;whiteSpace=wrap;html=1;" vertex="1" parent="1">
          <mxGeometry x="-59" y="215" width="100" height="40" as="geometry" />
        </mxCell>
        <mxCell id="y5Bnewn31eUm3wbabq6c-30" value="Нахождение" style="ellipse;whiteSpace=wrap;html=1;" vertex="1" parent="1">
          <mxGeometry x="-40" y="270" width="80" height="40" as="geometry" />
        </mxCell>
        <mxCell id="y5Bnewn31eUm3wbabq6c-31" value="" style="endArrow=none;html=1;rounded=0;entryX=1;entryY=0.5;entryDx=0;entryDy=0;exitX=0;exitY=0.5;exitDx=0;exitDy=0;" edge="1" parent="1" source="y5Bnewn31eUm3wbabq6c-1" target="y5Bnewn31eUm3wbabq6c-27">
          <mxGeometry width="50" height="50" relative="1" as="geometry">
            <mxPoint x="130" y="310" as="sourcePoint" />
            <mxPoint x="180" y="260" as="targetPoint" />
            <Array as="points">
              <mxPoint x="60" y="180" />
              <mxPoint x="60" y="120" />
            </Array>
          </mxGeometry>
        </mxCell>
        <mxCell id="y5Bnewn31eUm3wbabq6c-32" value="" style="endArrow=none;html=1;rounded=0;exitX=1;exitY=0.5;exitDx=0;exitDy=0;entryX=0;entryY=0.5;entryDx=0;entryDy=0;" edge="1" parent="1" source="y5Bnewn31eUm3wbabq6c-30" target="y5Bnewn31eUm3wbabq6c-1">
          <mxGeometry width="50" height="50" relative="1" as="geometry">
            <mxPoint x="130" y="310" as="sourcePoint" />
            <mxPoint x="180" y="260" as="targetPoint" />
            <Array as="points">
              <mxPoint x="60" y="290" />
              <mxPoint x="60" y="180" />
            </Array>
          </mxGeometry>
        </mxCell>
        <mxCell id="y5Bnewn31eUm3wbabq6c-33" value="" style="endArrow=none;html=1;rounded=0;exitX=1;exitY=0.5;exitDx=0;exitDy=0;" edge="1" parent="1" source="y5Bnewn31eUm3wbabq6c-29">
          <mxGeometry width="50" height="50" relative="1" as="geometry">
            <mxPoint x="110" y="310" as="sourcePoint" />
            <mxPoint x="60" y="235" as="targetPoint" />
          </mxGeometry>
        </mxCell>
        <mxCell id="y5Bnewn31eUm3wbabq6c-34" value="" style="endArrow=none;html=1;rounded=0;exitX=1;exitY=0.5;exitDx=0;exitDy=0;" edge="1" parent="1">
          <mxGeometry width="50" height="50" relative="1" as="geometry">
            <mxPoint x="41" y="179.87" as="sourcePoint" />
            <mxPoint x="60" y="179.87" as="targetPoint" />
          </mxGeometry>
        </mxCell>
        <mxCell id="y5Bnewn31eUm3wbabq6c-35" value="Год" style="ellipse;whiteSpace=wrap;html=1;" vertex="1" parent="1">
          <mxGeometry x="810" y="220" width="80" height="40" as="geometry" />
        </mxCell>
        <mxCell id="y5Bnewn31eUm3wbabq6c-36" value="Имя" style="ellipse;whiteSpace=wrap;html=1;" vertex="1" parent="1">
          <mxGeometry x="811" y="280" width="80" height="40" as="geometry" />
        </mxCell>
        <mxCell id="y5Bnewn31eUm3wbabq6c-38" value="id" style="ellipse;whiteSpace=wrap;html=1;" vertex="1" parent="1">
          <mxGeometry x="810" y="336" width="80" height="40" as="geometry" />
        </mxCell>
        <mxCell id="y5Bnewn31eUm3wbabq6c-39" value="" style="endArrow=none;html=1;rounded=0;entryX=1;entryY=0.5;entryDx=0;entryDy=0;exitX=0;exitY=0.5;exitDx=0;exitDy=0;" edge="1" parent="1" source="y5Bnewn31eUm3wbabq6c-36" target="y5Bnewn31eUm3wbabq6c-8">
          <mxGeometry width="50" height="50" relative="1" as="geometry">
            <mxPoint x="570" y="320" as="sourcePoint" />
            <mxPoint x="620" y="270" as="targetPoint" />
          </mxGeometry>
        </mxCell>
        <mxCell id="y5Bnewn31eUm3wbabq6c-40" value="" style="endArrow=none;html=1;rounded=0;entryX=0;entryY=0.5;entryDx=0;entryDy=0;exitX=0;exitY=0.5;exitDx=0;exitDy=0;" edge="1" parent="1" source="y5Bnewn31eUm3wbabq6c-38" target="y5Bnewn31eUm3wbabq6c-35">
          <mxGeometry width="50" height="50" relative="1" as="geometry">
            <mxPoint x="570" y="320" as="sourcePoint" />
            <mxPoint x="620" y="270" as="targetPoint" />
            <Array as="points">
              <mxPoint x="780" y="356" />
              <mxPoint x="780" y="300" />
              <mxPoint x="780" y="240" />
            </Array>
          </mxGeometry>
        </mxCell>
        <mxCell id="y5Bnewn31eUm3wbabq6c-41" value="Имя" style="ellipse;whiteSpace=wrap;html=1;" vertex="1" parent="1">
          <mxGeometry x="311" y="356" width="80" height="40" as="geometry" />
        </mxCell>
        <mxCell id="y5Bnewn31eUm3wbabq6c-42" value="id" style="ellipse;whiteSpace=wrap;html=1;" vertex="1" parent="1">
          <mxGeometry x="310" y="412" width="80" height="40" as="geometry" />
        </mxCell>
        <mxCell id="y5Bnewn31eUm3wbabq6c-43" value="" style="endArrow=none;html=1;rounded=0;exitX=1;exitY=0.5;exitDx=0;exitDy=0;entryX=1;entryY=0.5;entryDx=0;entryDy=0;" edge="1" parent="1" source="y5Bnewn31eUm3wbabq6c-42" target="y5Bnewn31eUm3wbabq6c-41">
          <mxGeometry width="50" height="50" relative="1" as="geometry">
            <mxPoint x="490" y="430" as="sourcePoint" />
            <mxPoint x="540" y="380" as="targetPoint" />
            <Array as="points">
              <mxPoint x="410" y="432" />
              <mxPoint x="410" y="410" />
              <mxPoint x="410" y="376" />
            </Array>
          </mxGeometry>
        </mxCell>
        <mxCell id="y5Bnewn31eUm3wbabq6c-44" value="" style="endArrow=none;html=1;rounded=0;entryX=0;entryY=0.5;entryDx=0;entryDy=0;" edge="1" parent="1" target="y5Bnewn31eUm3wbabq6c-13">
          <mxGeometry width="50" height="50" relative="1" as="geometry">
            <mxPoint x="410" y="404" as="sourcePoint" />
            <mxPoint x="490" y="410" as="targetPoint" />
          </mxGeometry>
        </mxCell>
      </root>
    </mxGraphModel>
  </diagram>
</mxfile>
